<svg width="118" height="118" viewBox="0 0 118 118" fill="none" xmlns="http://www.w3.org/2000/svg">
<path d="M110.631 22.5663V74.5116C110.631 74.7298 110.588 74.9458 110.504 75.1473C110.421 75.3488 110.298 75.5319 110.144 75.686C109.989 75.8401 109.806 75.9623 109.604 76.0455C109.403 76.1287 109.187 76.1714 108.968 76.171H66.9966C66.5566 76.171 66.1345 75.9961 65.8233 75.685C65.5121 75.3738 65.3373 74.9517 65.3373 74.5116V73.423C65.3373 72.9836 65.5112 72.5622 65.8211 72.2507C66.1309 71.9392 66.5514 71.7631 66.9908 71.7607C69.3642 71.7607 71.7083 71.9393 74.0466 71.9393C76.9204 71.9393 79.9698 71.7607 82.8992 72.0885C84.4649 72.2612 85.9984 72.9664 87.6957 73.2591C92.5536 74.0666 97.5164 74.0022 102.352 73.0689C102.69 73.0053 103.001 72.8378 103.24 72.5897C103.479 72.3417 103.635 72.0254 103.686 71.6846C104.204 68.1143 104.506 64.3274 104.942 60.6722C104.974 60.4022 104.94 60.1284 104.842 59.8747C104.744 59.6211 104.585 59.3954 104.379 59.2176C104.173 59.0399 103.927 58.9154 103.661 58.8552C103.396 58.795 103.12 58.8009 102.858 58.8724C99.5129 59.7884 96.2323 60.7074 92.9225 59.9933C87.0519 58.729 81.196 51.1172 84.6463 43.523C85.3414 42.1534 86.2749 40.9186 87.4031 39.8765C88.5222 38.8912 89.7982 38.0999 91.1783 37.5354C94.7603 36.1775 98.9949 36.7598 102.299 38.0124C102.569 38.1155 102.861 38.1462 103.147 38.1015C103.432 38.0568 103.701 37.9381 103.926 37.7573C104.152 37.5766 104.326 37.34 104.432 37.071C104.537 36.8021 104.571 36.5102 104.529 36.2243C103.996 32.533 103.472 28.8329 102.957 25.1241C102.905 24.7848 102.75 24.4698 102.513 24.2217C102.276 23.9736 101.968 23.8043 101.632 23.7369C97.5024 22.859 93.3 22.6834 89.1444 23.5438C87.7894 23.8364 86.5427 24.4217 85.2287 24.5622C83.5665 24.7349 81.7871 24.6383 80.1425 24.7114C75.9517 24.8958 71.6117 25.1446 67.0347 25.2587C66.8137 25.2638 66.594 25.2246 66.3884 25.1434C66.1829 25.0623 65.9956 24.9408 65.8377 24.7862C65.6798 24.6316 65.5544 24.4469 65.469 24.2431C65.3836 24.0392 65.3398 23.8204 65.3402 23.5994V21.3577C65.3256 21.147 65.3168 20.945 65.4836 20.9187H108.971C109.409 20.9187 109.83 21.0919 110.141 21.4006C110.451 21.7092 110.628 22.1283 110.631 22.5663Z" fill="white"/>
<path d="M73.9012 66.2573C74.3406 66.7545 74.8118 67.2228 75.3118 67.6591C75.3929 67.7339 75.4499 67.8312 75.4753 67.9385C75.5008 68.0459 75.4935 68.1584 75.4545 68.2616C75.4155 68.3648 75.3465 68.454 75.2564 68.5177C75.1663 68.5814 75.0592 68.6167 74.9489 68.619C71.8965 68.7039 68.9144 68.859 65.9148 69.0024C65.8395 69.0068 65.7641 68.9957 65.6932 68.9699C65.6223 68.9441 65.5575 68.904 65.5027 68.8522C65.4479 68.8004 65.4042 68.738 65.3744 68.6687C65.3446 68.5994 65.3293 68.5247 65.3295 68.4493V63.9864C65.3293 63.9086 65.3457 63.8317 65.3775 63.7607C65.4092 63.6898 65.4557 63.6263 65.5138 63.5746C65.5718 63.5229 65.6402 63.4841 65.7144 63.4608C65.7885 63.4374 65.8668 63.43 65.944 63.4391C68.0511 63.682 70.0206 63.0294 71.5717 63.6352C72.5755 64.0244 73.2252 65.473 73.8953 66.269" fill="white"/>
<path d="M76.0749 28.7913C75.4545 30.2253 74.0264 30.8604 73.1075 31.9929C73.0269 32.0892 72.9274 32.168 72.8151 32.2244C72.7029 32.2808 72.5803 32.3135 72.4549 32.3207C70.4707 32.4348 68.387 32.4524 66.2712 32.4407C66.023 32.4391 65.7856 32.3395 65.6107 32.1635C65.4358 31.9874 65.3376 31.7494 65.3376 31.5013V29.2186C65.3383 29.0918 65.3645 28.9665 65.4148 28.8501C65.465 28.7337 65.5382 28.6286 65.6301 28.5412C65.7219 28.4537 65.8304 28.3857 65.9491 28.3412C66.0678 28.2967 66.1943 28.2766 66.3209 28.2821C69.7654 28.4079 73.8128 27.331 76.0749 28.7913Z" fill="white"/>
<path d="M69.5369 60.5698H65.8788C65.7321 60.5698 65.5914 60.5115 65.4877 60.4078C65.3839 60.304 65.3257 60.1633 65.3257 60.0166V53.8388C65.3257 53.6919 65.3838 53.5509 65.4875 53.4467C65.5911 53.3425 65.7318 53.2836 65.8788 53.2828H67.0757C67.1989 53.2822 67.3188 53.3227 67.4164 53.398C67.5139 53.4733 67.5835 53.579 67.6142 53.6983C68.1995 56.0395 68.5594 58.6119 69.5369 60.5698Z" fill="white"/>
<path d="M69.8266 36.6643C69.771 38.0222 69.0833 38.748 68.656 39.743C68.6007 39.8769 68.5104 39.9935 68.3945 40.0805C68.2787 40.1675 68.1416 40.2218 67.9976 40.2376C67.4123 40.2932 66.7714 40.2786 66.1773 40.3195C66.0655 40.3288 65.9531 40.3149 65.847 40.2785C65.741 40.2421 65.6436 40.1842 65.5611 40.1083C65.4786 40.0324 65.4127 39.9402 65.3677 39.8375C65.3226 39.7348 65.2993 39.6239 65.2993 39.5118V36.4331C65.2985 36.2209 65.3813 36.0169 65.5297 35.8652C65.6781 35.7135 65.8802 35.6263 66.0924 35.6225C67.702 35.5932 69.1652 35.7161 69.8032 36.6643" fill="white"/>
<path d="M65.9668 44.2456H66.716C66.8018 44.2459 66.8867 44.2636 66.9654 44.2977C67.0441 44.3319 67.1151 44.3817 67.174 44.4441C67.2328 44.5065 67.2784 44.5803 67.3078 44.6609C67.3372 44.7415 67.35 44.8272 67.3452 44.9129C67.2662 46.2503 67.076 47.4706 67.073 48.8841C67.071 49.0328 67.016 49.1758 66.9177 49.2875C66.8195 49.3991 66.6847 49.4719 66.5375 49.4928C66.3882 49.5163 66.2448 49.5543 66.1131 49.5865C66.0207 49.6086 65.9245 49.6095 65.8316 49.589C65.7388 49.5686 65.6518 49.5274 65.5772 49.4686C65.5026 49.4097 65.4422 49.3347 65.4007 49.2492C65.3593 49.1637 65.3377 49.0699 65.3376 48.9749V44.8778C65.3372 44.7949 65.3532 44.7128 65.3847 44.6361C65.4161 44.5594 65.4624 44.4897 65.5209 44.431C65.5793 44.3722 65.6488 44.3256 65.7254 44.2938C65.8019 44.262 65.8839 44.2456 65.9668 44.2456Z" fill="white"/>
<path d="M60.2565 43.6639C60.5964 45.6706 60.8318 47.6935 60.9618 49.7247C60.9646 49.77 60.9582 49.8154 60.9431 49.8582C60.928 49.901 60.9045 49.9403 60.874 49.9739C60.8434 50.0074 60.8064 50.0345 60.7652 50.0535C60.724 50.0726 60.6794 50.0831 60.634 50.0846C55.896 50.2075 47.3916 50.5997 45.6357 50.6699C45.5513 50.6736 45.4684 50.6457 45.4035 50.5916C45.3385 50.5374 45.2961 50.461 45.2845 50.3773L45.1968 49.4613L44.8075 50.4563C44.7845 50.5163 44.7447 50.5684 44.6927 50.6063C44.6408 50.6442 44.5791 50.6663 44.5149 50.6699C42.8731 50.7372 32.3875 51.1703 26.6925 51.3811C26.5474 51.3889 26.4031 51.3547 26.277 51.2825C26.1508 51.2103 26.0482 51.1033 25.9814 50.9743V50.9596C25.9476 50.8959 25.8942 50.8447 25.8291 50.8136C25.764 50.7825 25.6906 50.7731 25.6198 50.7869C25.5489 50.8006 25.4844 50.8368 25.4357 50.8901C25.387 50.9433 25.3567 51.0108 25.3492 51.0825C25.2907 51.6678 25.3493 52.2912 25.2878 52.8384C24.5796 59.2592 23.6929 66.6983 22.9963 73.3854C22.985 73.4666 22.9447 73.5409 22.8829 73.5947C22.821 73.6485 22.7418 73.6781 22.6598 73.678H6.36799C6.31956 73.6785 6.2716 73.6685 6.22739 73.6488C6.18318 73.629 6.14375 73.5999 6.1118 73.5635C6.07985 73.5271 6.05613 73.4843 6.04226 73.4379C6.02839 73.3915 6.0247 73.3426 6.03144 73.2947C8.89648 57.1989 11.4923 40.8105 14.372 24.7411C14.3733 24.7217 14.3733 24.7021 14.372 24.6826V24.2729H28.9079C28.9842 24.2722 29.0587 24.2968 29.1196 24.3428C29.1805 24.3889 29.2244 24.4538 29.2444 24.5275C29.3966 25.1128 29.6922 25.5781 29.8297 26.1751C29.8408 26.225 29.8405 26.2768 29.8286 26.3265C29.8167 26.3762 29.7937 26.4225 29.7613 26.462C29.7289 26.5015 29.6879 26.5331 29.6414 26.5544C29.5949 26.5756 29.5443 26.5861 29.4932 26.5848C28.346 26.5673 27.4885 26.8336 26.274 26.7516C27.1842 27.0706 28.6533 26.8307 29.8297 26.8833L30.1224 27.1058C30.9154 29.1923 31.7232 31.2614 32.3845 33.4767L32.0743 33.9157C30.0638 34.024 28.0885 34.1703 25.9784 34.185C28.1653 34.4169 30.3643 34.5146 32.5631 34.4776C32.633 34.4774 32.7014 34.4985 32.7589 34.5383C32.8165 34.5781 32.8605 34.6345 32.885 34.7C33.6664 36.7749 34.3482 38.9347 35.1764 40.9774C35.2201 41.09 35.2375 41.2111 35.2272 41.3315C35.2169 41.4518 35.1793 41.5682 35.1172 41.6718C35.0551 41.7754 34.9702 41.8635 34.8688 41.9293C34.7675 41.9951 34.6525 42.0368 34.5326 42.0514C34.1551 42.0982 33.7688 42.1362 33.3796 42.1684C33.2952 42.1787 33.2178 42.2202 33.1625 42.2848C33.1073 42.3493 33.0783 42.4323 33.0812 42.5172C33.0841 42.6021 33.1188 42.6828 33.1784 42.7434C33.238 42.804 33.3181 42.8401 33.403 42.8445C34.0848 42.862 34.755 42.8884 35.4105 42.9323C35.7032 42.862 35.832 42.9323 35.911 43.0727C35.9397 43.1252 35.982 43.169 36.0335 43.1995C36.085 43.2301 36.1438 43.2462 36.2036 43.2462C36.2635 43.2462 36.3222 43.2301 36.3737 43.1995C36.4252 43.169 36.4675 43.1252 36.4963 43.0727C36.5351 43.0118 36.5924 42.9649 36.6599 42.9391C36.7273 42.9133 36.8013 42.9099 36.8709 42.9293C44.5939 43.2395 52.5101 43.3595 60.2448 43.6609" fill="white"/>
<path d="M59.3834 35.3525C59.48 37.2987 59.8166 38.996 59.9687 40.8924C52.3042 41.2114 44.6514 41.5421 37.1772 42.063C36.7616 41.6533 37.2855 40.9656 37.4698 40.4593C38.0317 38.9112 38.7985 36.7895 39.5184 35.2121C39.5184 35.0043 39.492 34.7965 39.6676 34.7731C46.3313 34.8814 52.9334 35.0658 59.4039 35.3584" fill="white"/>
<path d="M58.3729 27.6233C58.6041 29.0192 58.7973 30.4532 58.9056 31.9721L58.1944 32.7476C52.4263 32.9203 46.7811 33.21 41.1739 33.5377C41.0543 33.5446 40.9348 33.522 40.826 33.4718C40.7172 33.4217 40.6223 33.3456 40.5498 33.2502C40.4773 33.1549 40.4293 33.0431 40.41 32.9249C40.3908 32.8066 40.4008 32.6855 40.4394 32.572C40.9784 30.8863 41.6116 29.2322 42.3357 27.6174L43.0264 27.2077C48.0512 27.4419 53.3101 27.4301 58.3729 27.6233Z" fill="white"/>
<path d="M58.0839 24.2723V25.1502C57.7268 25.7063 56.9367 25.5512 56.328 25.5863C52.0494 25.8204 47.2939 25.8789 42.831 26.0252C43.1821 25.4399 43.1938 24.5444 43.7089 24.1289C48.4498 24.2254 53.58 23.9328 58.0868 24.2752" fill="white"/>
<path d="M44.1456 52.1251C43.0716 55.1043 41.8718 57.9781 40.666 60.811L40.1422 61.1973C37.0284 61.4519 33.5517 61.3436 30.3999 61.5631L29.7678 61.1388C28.7757 58.1479 27.5641 55.3765 26.5662 52.3885C26.5353 52.2929 26.5278 52.1912 26.5443 52.092C26.5607 51.9928 26.6007 51.8991 26.6609 51.8185C26.7211 51.738 26.7997 51.6731 26.8902 51.6291C26.9806 51.5852 27.0802 51.5637 27.1807 51.5662C32.8611 51.7242 38.559 51.8764 44.1544 52.1281" fill="white"/>
<path d="M40.0817 62.3228C39.2038 64.6348 38.2907 66.8999 37.363 69.1591L36.6841 69.6127H33.4825L32.7948 69.1211C32.0514 67.0286 31.1735 65.0708 30.5004 62.9052C30.4648 62.7922 30.4572 62.6723 30.478 62.5557C30.4988 62.4391 30.5475 62.3293 30.6199 62.2356C30.6924 62.1419 30.7864 62.067 30.894 62.0175C31.0016 61.968 31.1196 61.9452 31.2379 61.9512C34.1468 62.118 37.246 62.0829 40.0817 62.3228Z" fill="white"/>
<path d="M36.8857 70.3397C36.6662 71.1298 36.198 71.8585 35.8702 72.6809C35.6537 73.2281 35.5776 73.9217 35.2849 74.4368L34.7201 74.3636C34.3309 73.0525 33.7456 71.9375 33.3681 70.6177L33.6871 70.2226C34.7611 70.2606 35.6888 70.4509 36.8886 70.3601" fill="white"/>
<path d="M63.266 74.8905L48.4696 75.2709C48.2795 75.2752 48.0945 75.2088 47.9507 75.0844C47.8068 74.96 47.7143 74.7866 47.6911 74.5978L47.4658 71.5543C47.4523 71.4446 47.4626 71.3334 47.496 71.2281C47.5293 71.1228 47.585 71.0259 47.6591 70.944C47.7332 70.862 47.8241 70.7971 47.9256 70.7534C48.0271 70.7098 48.1367 70.6885 48.2472 70.691L63.1021 71.0714C63.2798 71.0765 63.4503 71.1432 63.5843 71.2601C63.7183 71.377 63.8075 71.5369 63.8366 71.7123L64.0093 73.9979C64.0274 74.1067 64.0219 74.218 63.993 74.3244C63.9642 74.4309 63.9127 74.5298 63.8422 74.6145C63.7716 74.6992 63.6836 74.7677 63.5842 74.8154C63.4847 74.863 63.3762 74.8886 63.266 74.8905Z" fill="white"/>
<path d="M62.2022 69.0177L48.2428 69.3923C47.9961 69.3988 47.756 69.312 47.5705 69.1493C47.385 68.9866 47.2676 68.7598 47.2419 68.5144L46.6566 63.4193C46.6403 63.2774 46.6551 63.1336 46.6999 62.998C46.7448 62.8624 46.8187 62.7381 46.9165 62.6339C47.0143 62.5298 47.1335 62.4481 47.2661 62.3948C47.3986 62.3414 47.5412 62.3175 47.6838 62.3248L61.6725 63.0623C61.8994 63.0737 62.1153 63.1638 62.283 63.317C62.4507 63.4703 62.5597 63.6772 62.5914 63.9022L63.1621 67.894C63.1826 68.0325 63.1731 68.1738 63.1344 68.3084C63.0957 68.4429 63.0287 68.5677 62.9377 68.6741C62.8468 68.7806 62.7341 68.8664 62.6072 68.9256C62.4803 68.9849 62.3422 69.0163 62.2022 69.0177Z" fill="white"/>
<path d="M61.3401 53.4765L62.2736 59.4026C62.297 59.5507 62.2885 59.702 62.2487 59.8465C62.209 59.991 62.1388 60.1254 62.043 60.2406C61.9471 60.3558 61.8278 60.4493 61.693 60.5147C61.5581 60.5801 61.4109 60.6161 61.2611 60.6201L47.4421 60.9859C47.1837 60.9914 46.9321 60.9022 46.7348 60.7351C46.5375 60.568 46.4081 60.3345 46.371 60.0787L45.4199 53.4267C45.3986 53.2747 45.4107 53.1199 45.4553 52.9731C45.4999 52.8262 45.5759 52.6909 45.6781 52.5764C45.7804 52.4619 45.9063 52.3711 46.0472 52.3102C46.1881 52.2493 46.3405 52.2199 46.494 52.2239L60.3246 52.5868C60.5709 52.5939 60.8071 52.6866 60.9924 52.8489C61.1778 53.0113 61.3007 53.2332 61.3401 53.4765Z" fill="white"/>
<path d="M14.1684 94.583V88.891L11.9326 93.1285H11.0078L8.78369 88.891V94.583H7.08632V85.9147H8.90367L11.4556 90.8342L14.0338 85.9147H15.8395V94.583H14.1684Z" fill="white"/>
<path d="M20.6997 94.583V85.9147H22.3824V94.583H20.6997Z" fill="white"/>
<path d="M26.7131 90.1702C26.7152 89.0799 27.1172 88.0282 27.8428 87.2144C28.2373 86.7728 28.7228 86.4219 29.2659 86.186C29.809 85.9501 30.3968 85.8347 30.9888 85.8477C31.7135 85.8283 32.4296 86.0096 33.0578 86.3716C33.6111 86.6918 34.0587 87.1669 34.3455 87.7382L33.0636 88.6308C32.9342 88.3304 32.7332 88.0662 32.4783 87.8611C32.2517 87.6793 31.9924 87.5423 31.7145 87.4573C31.4591 87.3804 31.1941 87.34 30.9273 87.3373C30.543 87.3279 30.1626 87.4155 29.8211 87.5919C29.5152 87.7574 29.2487 87.987 29.0397 88.265C28.8305 88.5444 28.672 88.8584 28.5715 89.1927C28.4673 89.5282 28.414 89.8774 28.4134 90.2287C28.412 90.6011 28.4734 90.9711 28.5949 91.3232C28.7107 91.6645 28.8861 91.9825 29.1129 92.2626C29.3342 92.5321 29.6093 92.7523 29.9206 92.9094C30.2401 93.0699 30.5932 93.1522 30.9507 93.1493C31.2253 93.146 31.4977 93.1006 31.7584 93.0147C32.039 92.9207 32.2999 92.7759 32.5281 92.5875C32.7782 92.3778 32.9782 92.1148 33.1134 91.8178L34.4801 92.6226C34.2992 93.0578 34.0064 93.4374 33.6314 93.7229C33.2432 94.0239 32.8055 94.2546 32.3379 94.4048C31.8791 94.5574 31.3991 94.6364 30.9156 94.6389C30.3303 94.6511 29.7504 94.5237 29.2241 94.2673C28.7195 94.0157 28.2691 93.6678 27.8984 93.243C27.5228 92.8177 27.2256 92.3292 27.0204 91.8002C26.816 91.2812 26.7117 90.728 26.7131 90.1702Z" fill="white"/>
<path d="M38.6695 94.5832V85.9149H42.5149C42.8926 85.9108 43.2662 85.9939 43.6065 86.1578C43.9392 86.3181 44.2374 86.5417 44.4845 86.8162C44.734 87.0876 44.9323 87.4019 45.0698 87.7439C45.2027 88.0783 45.2712 88.4347 45.2717 88.7945C45.2726 89.1534 45.2081 89.5094 45.0815 89.8452C44.9591 90.1705 44.7741 90.4688 44.5371 90.7231C44.3049 90.9739 44.0228 91.1732 43.7089 91.3084L45.6872 94.5685H43.8319L42.0467 91.6625H40.364V94.5685L38.6695 94.5832ZM40.3552 90.1934H42.4652C42.6689 90.1971 42.8675 90.1299 43.0271 90.0032C43.1966 89.8684 43.3311 89.6948 43.4192 89.4969C43.5187 89.2742 43.5687 89.0326 43.5655 88.7887C43.5696 88.538 43.5102 88.2904 43.3929 88.0688C43.2919 87.8706 43.1455 87.6991 42.9656 87.5683C42.804 87.4482 42.608 87.3836 42.4066 87.384H40.3581L40.3552 90.1934Z" fill="white"/>
<path d="M53.4907 94.6434C52.8959 94.6496 52.3074 94.5205 51.7699 94.2659C51.2627 94.0287 50.8095 93.6901 50.4383 93.2709C50.0609 92.8568 49.7633 92.3766 49.5604 91.8545C49.3621 91.3392 49.2628 90.7911 49.2677 90.239C49.2657 89.6709 49.3761 89.1079 49.5926 88.5826C49.7989 88.0666 50.0963 87.5918 50.4705 87.1808C50.8505 86.7683 51.3092 86.436 51.8196 86.2034C52.3524 85.961 52.9317 85.8382 53.517 85.8434C54.111 85.8361 54.6987 85.9653 55.2348 86.221C55.7398 86.4655 56.1898 86.8099 56.5576 87.2335C56.921 87.6525 57.2082 88.1319 57.4063 88.6499C57.602 89.1649 57.7012 89.7115 57.699 90.2624C57.7011 90.8245 57.5958 91.3817 57.3888 91.9042C57.1846 92.4222 56.887 92.8984 56.5108 93.3089C56.1315 93.7182 55.675 94.0485 55.1675 94.2805C54.6408 94.5194 54.0691 94.6431 53.4907 94.6434ZM50.9739 90.2537C50.9736 90.6224 51.0319 90.9889 51.1465 91.3394C51.2537 91.6779 51.4213 91.9942 51.6411 92.2729C51.8622 92.5534 52.1454 92.7787 52.4684 92.9311C52.7914 93.0834 53.1453 93.1587 53.5024 93.1509C53.8797 93.1596 54.2531 93.0731 54.5881 92.8992C54.8943 92.7356 55.1626 92.5093 55.3753 92.2349C55.5938 91.9537 55.7576 91.6341 55.8582 91.2926C55.9621 90.953 56.0153 90.6 56.0162 90.2449C56.0177 89.8772 55.9604 89.5117 55.8465 89.1621C55.7372 88.8251 55.5676 88.5108 55.3461 88.2344C55.1301 87.9654 54.8599 87.745 54.553 87.5876C54.2228 87.4251 53.8586 87.3438 53.4907 87.3506C53.1194 87.3433 52.7523 87.4288 52.4225 87.5993C52.1141 87.7609 51.8437 87.9863 51.6294 88.2607C51.4104 88.537 51.2447 88.8516 51.1407 89.1884C51.0297 89.5306 50.9734 89.8881 50.9739 90.2478V90.2537Z" fill="white"/>
<path d="M67.5339 90.1702C67.5324 89.0792 67.9348 88.0263 68.6635 87.2144C69.0577 86.7732 69.5427 86.4225 70.0853 86.1866C70.6278 85.9507 71.2151 85.8351 71.8066 85.8477C72.5314 85.8283 73.2474 86.0096 73.8756 86.3716C74.4296 86.691 74.8774 87.1663 75.1633 87.7382L73.8815 88.6308C73.752 88.3304 73.5511 88.0662 73.2962 87.8611C73.0695 87.6793 72.8103 87.5423 72.5324 87.4573C72.2769 87.3804 72.0119 87.34 71.7451 87.3373C71.3618 87.3282 70.9824 87.4157 70.6418 87.5919C70.3359 87.7574 70.0694 87.987 69.8605 88.265C69.6503 88.5443 69.4908 88.8583 69.3893 89.1927C69.2851 89.5282 69.2318 89.8774 69.2313 90.2287C69.2313 90.601 69.2926 90.9708 69.4127 91.3232C69.5283 91.6652 69.7048 91.9834 69.9336 92.2626C70.1532 92.5326 70.4275 92.753 70.7384 92.9094C71.0589 93.07 71.413 93.1522 71.7715 93.1493C72.045 93.146 72.3165 93.1006 72.5762 93.0147C72.8568 92.9207 73.1178 92.7759 73.3459 92.5874C73.596 92.3778 73.796 92.1148 73.9312 91.8178L75.2979 92.6226C75.117 93.0578 74.8242 93.4374 74.4492 93.7229C74.0614 94.0244 73.6236 94.2552 73.1557 94.4048C72.6969 94.5574 72.2169 94.6364 71.7334 94.6389C71.1469 94.6465 70.567 94.5141 70.0419 94.2526C69.5373 94.0011 69.0869 93.6531 68.7162 93.2284C68.3406 92.8031 68.0434 92.3146 67.8382 91.7856C67.6365 91.2709 67.5332 90.7229 67.5339 90.1702Z" fill="white"/>
<path d="M79.4886 94.583V85.9147H81.1743V93.0964H85.5933V94.5742L79.4886 94.583Z" fill="white"/>
<path d="M93.098 94.6445C92.494 94.661 91.894 94.542 91.3421 94.2962C90.878 94.0788 90.4756 93.7488 90.1715 93.3363C89.8689 92.92 89.6476 92.4504 89.5189 91.9521C89.378 91.4243 89.3081 90.88 89.3111 90.3337V85.9147H90.9821V90.3337C90.9809 90.6844 91.0201 91.034 91.0992 91.3756C91.1685 91.6957 91.288 92.0029 91.4533 92.2857C91.6063 92.5509 91.8276 92.7702 92.0942 92.9208C92.4014 93.0856 92.7466 93.1664 93.0951 93.1549C93.45 93.1688 93.8021 93.0858 94.1135 92.9149C94.3778 92.7588 94.5983 92.5384 94.7544 92.274C94.9229 91.9928 95.0426 91.685 95.1085 91.3639C95.1836 91.0257 95.2208 90.6802 95.2197 90.3337V85.9147H96.8937V90.3337C96.8967 90.8962 96.8229 91.4565 96.6742 91.9989C96.5393 92.4978 96.3109 92.9666 96.0011 93.3802C95.6925 93.7804 95.2906 94.099 94.8305 94.3079C94.2841 94.5441 93.693 94.6589 93.098 94.6445Z" fill="white"/>
<path d="M108.63 92.3594C108.644 92.7951 108.511 93.223 108.253 93.5739C107.988 93.9138 107.634 94.1741 107.231 94.326C106.787 94.5014 106.313 94.5888 105.835 94.5835H101.644V85.9152H106.286C106.664 85.9061 107.034 86.019 107.342 86.2372C107.637 86.4512 107.872 86.7374 108.024 87.0683C108.183 87.3977 108.265 87.759 108.264 88.1248C108.264 88.5364 108.154 88.9405 107.945 89.2954C107.734 89.6667 107.409 89.9602 107.018 90.1323C107.484 90.2625 107.894 90.5409 108.188 90.9254C108.491 91.3407 108.647 91.8455 108.63 92.3594ZM103.33 87.3551V89.5412H105.578C105.757 89.5421 105.934 89.4957 106.09 89.4066C106.245 89.3152 106.374 89.1839 106.461 89.0261C106.561 88.8474 106.609 88.645 106.602 88.4408C106.61 88.2383 106.566 88.037 106.476 87.8555C106.394 87.7039 106.277 87.5744 106.134 87.478C105.99 87.3851 105.822 87.3363 105.651 87.3375L103.33 87.3551ZM106.933 92.0375C106.935 91.8344 106.889 91.6338 106.798 91.4522C106.714 91.2843 106.591 91.1396 106.438 91.0308C106.286 90.9248 106.105 90.8695 105.92 90.8727H103.33V93.17H105.824C106.019 93.1713 106.211 93.1176 106.377 93.0149C106.543 92.9164 106.68 92.7761 106.775 92.6081C106.878 92.4336 106.933 92.2345 106.933 92.0316V92.0375Z" fill="white"/>
</svg>
